<mxfile host="Electron" modified="2024-05-21T06:16:04.888Z" agent="Mozilla/5.0 (Macintosh; Intel Mac OS X 10_15_7) AppleWebKit/537.36 (KHTML, like Gecko) draw.io/24.4.0 Chrome/120.0.6099.109 Electron/28.1.0 Safari/537.36" etag="ZbCaxoUTEjfNWGd35v2a" version="24.4.0" type="device">
  <diagram name="Page-1" id="SiJD-ng_YzuJyqXhKiwo">
    <mxGraphModel dx="1369" dy="1123" grid="1" gridSize="10" guides="1" tooltips="1" connect="1" arrows="1" fold="1" page="1" pageScale="1" pageWidth="827" pageHeight="1169" math="0" shadow="0">
      <root>
        <mxCell id="0" />
        <mxCell id="1" parent="0" />
        <mxCell id="iDqsByRolU6ngndonZAR-3" value="CloudFormation&lt;br&gt;&lt;span style=&quot;font-weight: normal;&quot;&gt;Certificate Stack&lt;/span&gt;" style="rounded=0;whiteSpace=wrap;html=1;verticalAlign=top;align=left;labelBackgroundColor=none;spacingLeft=7;fontColor=default;fontStyle=1" parent="1" vertex="1">
          <mxGeometry x="681.5" y="320" width="132" height="200" as="geometry" />
        </mxCell>
        <mxCell id="iDqsByRolU6ngndonZAR-2" value="CloudFormation&lt;br&gt;&lt;span style=&quot;font-weight: normal;&quot;&gt;GitHub-OIDC Stack&lt;/span&gt;" style="rounded=0;whiteSpace=wrap;html=1;verticalAlign=top;align=left;labelBackgroundColor=none;spacingLeft=7;fontColor=default;fontStyle=1;glass=0;shadow=0;" parent="1" vertex="1">
          <mxGeometry x="681.5" y="147" width="132" height="163" as="geometry" />
        </mxCell>
        <mxCell id="yIIMlywsqg2m234oK09I-35" value="&lt;span style=&quot;&quot;&gt;CloudFormation&lt;/span&gt;&lt;div&gt;&lt;span style=&quot;font-weight: normal;&quot;&gt;Website Stack&lt;/span&gt;&lt;/div&gt;" style="rounded=0;whiteSpace=wrap;html=1;align=left;verticalAlign=top;labelBackgroundColor=none;labelBorderColor=none;textShadow=0;spacingLeft=7;spacingTop=0;fillColor=default;fontColor=default;fillStyle=auto;gradientColor=none;shadow=0;glass=0;movable=1;resizable=1;rotatable=1;deletable=1;editable=1;locked=0;connectable=1;fontStyle=1" parent="1" vertex="1">
          <mxGeometry x="200" y="147" width="468" height="543" as="geometry" />
        </mxCell>
        <mxCell id="xSIVq86NVZy9tXW9cExc-10" style="edgeStyle=orthogonalEdgeStyle;rounded=1;orthogonalLoop=1;jettySize=auto;html=1;curved=0;strokeColor=#009900;strokeWidth=1;" parent="1" source="yIIMlywsqg2m234oK09I-1" target="yIIMlywsqg2m234oK09I-63" edge="1">
          <mxGeometry relative="1" as="geometry">
            <Array as="points">
              <mxPoint x="582" y="70" />
              <mxPoint x="582" y="237" />
            </Array>
          </mxGeometry>
        </mxCell>
        <mxCell id="aziS1PCf4eZ0EtkE1LwG-9" value="(1.3)" style="edgeLabel;html=1;align=center;verticalAlign=middle;resizable=0;points=[];fontColor=default;" parent="xSIVq86NVZy9tXW9cExc-10" vertex="1" connectable="0">
          <mxGeometry x="0.6355" y="-1" relative="1" as="geometry">
            <mxPoint as="offset" />
          </mxGeometry>
        </mxCell>
        <mxCell id="xSIVq86NVZy9tXW9cExc-11" style="edgeStyle=orthogonalEdgeStyle;rounded=1;orthogonalLoop=1;jettySize=auto;html=1;jumpStyle=none;curved=0;strokeColor=#009900;strokeWidth=1;" parent="1" source="yIIMlywsqg2m234oK09I-1" target="yIIMlywsqg2m234oK09I-4" edge="1">
          <mxGeometry relative="1" as="geometry">
            <Array as="points">
              <mxPoint x="592" y="60" />
              <mxPoint x="592" y="407" />
            </Array>
          </mxGeometry>
        </mxCell>
        <mxCell id="aziS1PCf4eZ0EtkE1LwG-10" value="(1.4)" style="edgeLabel;html=1;align=center;verticalAlign=middle;resizable=0;points=[];fontColor=default;" parent="xSIVq86NVZy9tXW9cExc-11" vertex="1" connectable="0">
          <mxGeometry x="0.3727" y="1" relative="1" as="geometry">
            <mxPoint y="-140" as="offset" />
          </mxGeometry>
        </mxCell>
        <mxCell id="yIIMlywsqg2m234oK09I-1" value="GitHub&lt;br&gt;Actions" style="dashed=0;outlineConnect=0;html=1;align=center;labelPosition=center;verticalLabelPosition=bottom;verticalAlign=top;shape=mxgraph.weblogos.github" parent="1" vertex="1">
          <mxGeometry x="492.12" y="7" width="75" height="75" as="geometry" />
        </mxCell>
        <mxCell id="yIIMlywsqg2m234oK09I-2" value="" style="outlineConnect=0;dashed=0;verticalLabelPosition=bottom;verticalAlign=top;align=center;html=1;shape=mxgraph.aws3.role;fillColor=#759C3E;gradientColor=none;labelBackgroundColor=default;" parent="1" vertex="1">
          <mxGeometry x="560" y="180" width="43.98" height="37" as="geometry" />
        </mxCell>
        <mxCell id="xSIVq86NVZy9tXW9cExc-8" style="edgeStyle=orthogonalEdgeStyle;rounded=1;orthogonalLoop=1;jettySize=auto;html=1;curved=0;strokeColor=default;" parent="1" source="yIIMlywsqg2m234oK09I-4" target="yIIMlywsqg2m234oK09I-61" edge="1">
          <mxGeometry relative="1" as="geometry">
            <Array as="points">
              <mxPoint x="460" y="440" />
              <mxPoint x="460" y="506" />
            </Array>
          </mxGeometry>
        </mxCell>
        <mxCell id="aziS1PCf4eZ0EtkE1LwG-7" value="(2.6)" style="edgeLabel;html=1;align=center;verticalAlign=middle;resizable=0;points=[];fontColor=default;" parent="xSIVq86NVZy9tXW9cExc-8" vertex="1" connectable="0">
          <mxGeometry x="0.022" y="1" relative="1" as="geometry">
            <mxPoint x="-1" y="1" as="offset" />
          </mxGeometry>
        </mxCell>
        <mxCell id="xSIVq86NVZy9tXW9cExc-9" style="edgeStyle=orthogonalEdgeStyle;rounded=1;orthogonalLoop=1;jettySize=auto;html=1;curved=0;strokeColor=default;" parent="1" source="yIIMlywsqg2m234oK09I-4" target="yIIMlywsqg2m234oK09I-63" edge="1">
          <mxGeometry relative="1" as="geometry">
            <Array as="points">
              <mxPoint x="290" y="397" />
              <mxPoint x="290" y="237" />
            </Array>
          </mxGeometry>
        </mxCell>
        <mxCell id="aziS1PCf4eZ0EtkE1LwG-6" value="(2.5)" style="edgeLabel;html=1;align=center;verticalAlign=middle;resizable=0;points=[];fontColor=default;" parent="xSIVq86NVZy9tXW9cExc-9" vertex="1" connectable="0">
          <mxGeometry x="-0.5784" y="-3" relative="1" as="geometry">
            <mxPoint x="-3" y="-137" as="offset" />
          </mxGeometry>
        </mxCell>
        <mxCell id="yIIMlywsqg2m234oK09I-4" value="CloudFront&lt;br&gt;CDN" style="outlineConnect=0;dashed=0;verticalLabelPosition=bottom;verticalAlign=top;align=center;html=1;shape=mxgraph.aws3.cloudfront;fillColor=#F58536;gradientColor=none;" parent="1" vertex="1">
          <mxGeometry x="352" y="377" width="76.5" height="93" as="geometry" />
        </mxCell>
        <mxCell id="yIIMlywsqg2m234oK09I-10" value="ACM&lt;br&gt;Certificate" style="sketch=0;outlineConnect=0;fontColor=default;gradientColor=none;fillColor=#7AA116;strokeColor=none;dashed=0;verticalLabelPosition=bottom;verticalAlign=top;align=center;html=1;fontSize=12;fontStyle=0;aspect=fixed;pointerEvents=1;shape=mxgraph.aws4.certificate_manager;" parent="1" vertex="1">
          <mxGeometry x="718" y="383.75" width="59" height="78" as="geometry" />
        </mxCell>
        <mxCell id="yIIMlywsqg2m234oK09I-16" style="edgeStyle=orthogonalEdgeStyle;rounded=1;orthogonalLoop=1;jettySize=auto;html=1;curved=0;strokeColor=default;" parent="1" source="yIIMlywsqg2m234oK09I-4" target="yIIMlywsqg2m234oK09I-8" edge="1">
          <mxGeometry relative="1" as="geometry">
            <Array as="points">
              <mxPoint x="460" y="396" />
              <mxPoint x="460" y="306" />
            </Array>
            <mxPoint x="428.5" y="380" as="sourcePoint" />
          </mxGeometry>
        </mxCell>
        <mxCell id="yIIMlywsqg2m234oK09I-46" value="(2.4)" style="edgeLabel;html=1;align=center;verticalAlign=middle;resizable=0;points=[];fontColor=default;" parent="yIIMlywsqg2m234oK09I-16" vertex="1" connectable="0">
          <mxGeometry x="-0.4043" y="1" relative="1" as="geometry">
            <mxPoint x="1" y="-46" as="offset" />
          </mxGeometry>
        </mxCell>
        <mxCell id="yIIMlywsqg2m234oK09I-17" value="" style="group" parent="1" vertex="1" connectable="0">
          <mxGeometry x="490" y="287" width="94" height="95" as="geometry" />
        </mxCell>
        <mxCell id="yIIMlywsqg2m234oK09I-8" value="Fn" style="shape=mxgraph.electrical.abstract.function;html=1;shadow=0;dashed=0;align=center;strokeWidth=1;fontSize=24;fontColor=default;" parent="yIIMlywsqg2m234oK09I-17" vertex="1">
          <mxGeometry x="5" width="60" height="40" as="geometry" />
        </mxCell>
        <mxCell id="yIIMlywsqg2m234oK09I-15" value="CloudFront&lt;br&gt;Function&lt;br&gt;ViewerRequest" style="text;html=1;align=center;verticalAlign=middle;whiteSpace=wrap;rounded=0;fillColor=default;" parent="yIIMlywsqg2m234oK09I-17" vertex="1">
          <mxGeometry x="-17" y="56" width="104" height="17" as="geometry" />
        </mxCell>
        <mxCell id="aziS1PCf4eZ0EtkE1LwG-2" style="edgeStyle=orthogonalEdgeStyle;rounded=0;orthogonalLoop=1;jettySize=auto;html=1;dashed=1;strokeColor=default;" parent="1" source="uAsZJu_QN1CAzZSzSdQD-3" target="uAsZJu_QN1CAzZSzSdQD-2" edge="1">
          <mxGeometry relative="1" as="geometry">
            <Array as="points">
              <mxPoint x="640" y="600" />
              <mxPoint x="640" y="600" />
            </Array>
            <mxPoint x="422.5" y="593.7333333333333" as="sourcePoint" />
            <mxPoint x="713.5" y="593.7500000000001" as="targetPoint" />
          </mxGeometry>
        </mxCell>
        <mxCell id="aziS1PCf4eZ0EtkE1LwG-8" value="(0.2)" style="edgeLabel;html=1;align=center;verticalAlign=middle;resizable=0;points=[];fontColor=default;" parent="aziS1PCf4eZ0EtkE1LwG-2" vertex="1" connectable="0">
          <mxGeometry x="0.3261" y="-2" relative="1" as="geometry">
            <mxPoint x="20" y="-2" as="offset" />
          </mxGeometry>
        </mxCell>
        <mxCell id="yIIMlywsqg2m234oK09I-21" style="edgeStyle=orthogonalEdgeStyle;rounded=1;orthogonalLoop=1;jettySize=auto;html=1;curved=0;strokeColor=default;" parent="1" source="uAsZJu_QN1CAzZSzSdQD-3" target="yIIMlywsqg2m234oK09I-4" edge="1">
          <mxGeometry relative="1" as="geometry">
            <mxPoint x="352" y="590" as="sourcePoint" />
            <mxPoint x="352" y="447" as="targetPoint" />
            <Array as="points">
              <mxPoint x="310" y="590" />
              <mxPoint x="310" y="440" />
            </Array>
          </mxGeometry>
        </mxCell>
        <mxCell id="yIIMlywsqg2m234oK09I-45" value="(2.2)" style="edgeLabel;html=1;align=center;verticalAlign=middle;resizable=0;points=[];fontColor=default;" parent="yIIMlywsqg2m234oK09I-21" vertex="1" connectable="0">
          <mxGeometry x="-0.2804" relative="1" as="geometry">
            <mxPoint y="-75" as="offset" />
          </mxGeometry>
        </mxCell>
        <mxCell id="yIIMlywsqg2m234oK09I-23" style="edgeStyle=orthogonalEdgeStyle;rounded=1;orthogonalLoop=1;jettySize=auto;html=1;curved=0;strokeColor=default;strokeWidth=1;" parent="1" source="yIIMlywsqg2m234oK09I-22" target="uAsZJu_QN1CAzZSzSdQD-3" edge="1">
          <mxGeometry relative="1" as="geometry">
            <mxPoint x="142" y="441" as="sourcePoint" />
            <Array as="points">
              <mxPoint x="270" y="497" />
              <mxPoint x="270" y="610" />
            </Array>
            <mxPoint x="352" y="610" as="targetPoint" />
          </mxGeometry>
        </mxCell>
        <mxCell id="yIIMlywsqg2m234oK09I-43" value="(2.1)" style="edgeLabel;html=1;align=center;verticalAlign=middle;resizable=0;points=[];fontColor=default;" parent="yIIMlywsqg2m234oK09I-23" vertex="1" connectable="0">
          <mxGeometry x="0.1075" y="-1" relative="1" as="geometry">
            <mxPoint x="-39" y="-60" as="offset" />
          </mxGeometry>
        </mxCell>
        <mxCell id="yIIMlywsqg2m234oK09I-22" value="User" style="shape=umlActor;verticalLabelPosition=bottom;verticalAlign=top;html=1;outlineConnect=0;" parent="1" vertex="1">
          <mxGeometry x="120" y="452" width="30" height="60" as="geometry" />
        </mxCell>
        <mxCell id="yIIMlywsqg2m234oK09I-24" style="edgeStyle=orthogonalEdgeStyle;rounded=1;orthogonalLoop=1;jettySize=auto;html=1;curved=0;strokeColor=default;strokeWidth=1;" parent="1" source="yIIMlywsqg2m234oK09I-22" target="yIIMlywsqg2m234oK09I-4" edge="1">
          <mxGeometry relative="1" as="geometry">
            <mxPoint x="12" y="443" as="sourcePoint" />
            <mxPoint x="338" y="422.9999999999999" as="targetPoint" />
            <Array as="points">
              <mxPoint x="270" y="478" />
              <mxPoint x="270" y="424" />
            </Array>
          </mxGeometry>
        </mxCell>
        <mxCell id="yIIMlywsqg2m234oK09I-44" value="(2.3)" style="edgeLabel;html=1;align=center;verticalAlign=middle;resizable=0;points=[];fontColor=default;" parent="yIIMlywsqg2m234oK09I-24" vertex="1" connectable="0">
          <mxGeometry x="-0.0087" y="1" relative="1" as="geometry">
            <mxPoint x="-39" y="6" as="offset" />
          </mxGeometry>
        </mxCell>
        <mxCell id="yIIMlywsqg2m234oK09I-30" style="edgeStyle=orthogonalEdgeStyle;rounded=0;orthogonalLoop=1;jettySize=auto;html=1;startArrow=classic;startFill=1;endArrow=none;endFill=0;dashed=1;strokeColor=default;" parent="1" source="yIIMlywsqg2m234oK09I-10" target="yIIMlywsqg2m234oK09I-4" edge="1">
          <mxGeometry relative="1" as="geometry">
            <Array as="points" />
          </mxGeometry>
        </mxCell>
        <mxCell id="yIIMlywsqg2m234oK09I-50" value="(0.3)" style="edgeLabel;html=1;align=center;verticalAlign=middle;resizable=0;points=[];fontColor=default;" parent="yIIMlywsqg2m234oK09I-30" vertex="1" connectable="0">
          <mxGeometry x="-0.2846" y="-3" relative="1" as="geometry">
            <mxPoint x="16" y="3" as="offset" />
          </mxGeometry>
        </mxCell>
        <mxCell id="yIIMlywsqg2m234oK09I-54" style="edgeStyle=orthogonalEdgeStyle;rounded=0;orthogonalLoop=1;jettySize=auto;html=1;strokeColor=#009900;" parent="1" source="yIIMlywsqg2m234oK09I-51" target="yIIMlywsqg2m234oK09I-53" edge="1">
          <mxGeometry relative="1" as="geometry">
            <Array as="points">
              <mxPoint x="280" y="60" />
              <mxPoint x="280" y="60" />
            </Array>
          </mxGeometry>
        </mxCell>
        <mxCell id="yIIMlywsqg2m234oK09I-56" value="(1.1)" style="edgeLabel;html=1;align=center;verticalAlign=middle;resizable=0;points=[];fontColor=default;" parent="yIIMlywsqg2m234oK09I-54" vertex="1" connectable="0">
          <mxGeometry x="0.1309" y="-1" relative="1" as="geometry">
            <mxPoint x="-6" y="-1" as="offset" />
          </mxGeometry>
        </mxCell>
        <mxCell id="yIIMlywsqg2m234oK09I-51" value="Developer" style="shape=umlActor;verticalLabelPosition=bottom;verticalAlign=top;html=1;outlineConnect=0;" parent="1" vertex="1">
          <mxGeometry x="210" y="22" width="30" height="60" as="geometry" />
        </mxCell>
        <mxCell id="yIIMlywsqg2m234oK09I-55" style="edgeStyle=orthogonalEdgeStyle;rounded=0;orthogonalLoop=1;jettySize=auto;html=1;strokeColor=#009900;" parent="1" source="yIIMlywsqg2m234oK09I-53" target="yIIMlywsqg2m234oK09I-1" edge="1">
          <mxGeometry relative="1" as="geometry">
            <Array as="points">
              <mxPoint x="470" y="60" />
              <mxPoint x="470" y="60" />
            </Array>
          </mxGeometry>
        </mxCell>
        <mxCell id="yIIMlywsqg2m234oK09I-57" value="(1.2)" style="edgeLabel;html=1;align=center;verticalAlign=middle;resizable=0;points=[];fontColor=default;" parent="yIIMlywsqg2m234oK09I-55" vertex="1" connectable="0">
          <mxGeometry x="0.0821" y="-2" relative="1" as="geometry">
            <mxPoint x="-5" y="-3" as="offset" />
          </mxGeometry>
        </mxCell>
        <mxCell id="yIIMlywsqg2m234oK09I-53" value="GitHub&lt;br&gt;Repository" style="dashed=0;outlineConnect=0;html=1;align=center;labelPosition=center;verticalLabelPosition=bottom;verticalAlign=top;shape=mxgraph.weblogos.github" parent="1" vertex="1">
          <mxGeometry x="299.75" y="7" width="75" height="75" as="geometry" />
        </mxCell>
        <mxCell id="yIIMlywsqg2m234oK09I-58" value="GitHub OIDC" style="points=[[0,0.5,0],[0.24,0,0],[0.5,0.28,0],[0.995,0.475,0],[0.5,0.72,0],[0.24,1,0]];verticalLabelPosition=bottom;sketch=0;html=1;verticalAlign=top;aspect=fixed;align=center;pointerEvents=1;shape=mxgraph.cisco19.key;fillColor=#005073;strokeColor=none;" parent="1" vertex="1">
          <mxGeometry x="722.5" y="226.5" width="50" height="22.5" as="geometry" />
        </mxCell>
        <mxCell id="yIIMlywsqg2m234oK09I-61" value="&lt;span style=&quot;font-family: Helvetica; font-size: 12px; font-style: normal; font-variant-ligatures: normal; font-variant-caps: normal; font-weight: 400; letter-spacing: normal; orphans: 2; text-align: center; text-indent: 0px; text-transform: none; widows: 2; word-spacing: 0px; -webkit-text-stroke-width: 0px; white-space: nowrap; text-decoration-thickness: initial; text-decoration-style: initial; text-decoration-color: initial; float: none; display: inline !important;&quot;&gt;S3&lt;/span&gt;&lt;br style=&quot;forced-color-adjust: none; font-family: Helvetica; font-size: 12px; font-style: normal; font-variant-ligatures: normal; font-variant-caps: normal; font-weight: 400; letter-spacing: normal; orphans: 2; text-align: center; text-indent: 0px; text-transform: none; widows: 2; word-spacing: 0px; -webkit-text-stroke-width: 0px; white-space: nowrap; text-decoration-thickness: initial; text-decoration-style: initial; text-decoration-color: initial;&quot;&gt;&lt;span style=&quot;font-family: Helvetica; font-size: 12px; font-style: normal; font-variant-ligatures: normal; font-variant-caps: normal; font-weight: 400; letter-spacing: normal; orphans: 2; text-align: center; text-indent: 0px; text-transform: none; widows: 2; word-spacing: 0px; -webkit-text-stroke-width: 0px; white-space: nowrap; text-decoration-thickness: initial; text-decoration-style: initial; text-decoration-color: initial; float: none; display: inline !important;&quot;&gt;Logs&lt;/span&gt;&amp;nbsp;Bucket" style="outlineConnect=0;dashed=0;verticalLabelPosition=bottom;verticalAlign=top;align=center;html=1;shape=mxgraph.aws3.bucket;fillColor=#E05243;gradientColor=none;fontColor=default;" parent="1" vertex="1">
          <mxGeometry x="497.12" y="475.5" width="60" height="61.5" as="geometry" />
        </mxCell>
        <mxCell id="yIIMlywsqg2m234oK09I-63" value="&lt;span style=&quot;font-family: Helvetica; font-size: 12px; font-style: normal; font-variant-ligatures: normal; font-variant-caps: normal; font-weight: 400; letter-spacing: normal; orphans: 2; text-align: center; text-indent: 0px; text-transform: none; widows: 2; word-spacing: 0px; -webkit-text-stroke-width: 0px; white-space: nowrap; text-decoration-thickness: initial; text-decoration-style: initial; text-decoration-color: initial; float: none; display: inline !important;&quot;&gt;S3&lt;/span&gt;&lt;br style=&quot;forced-color-adjust: none; font-family: Helvetica; font-size: 12px; font-style: normal; font-variant-ligatures: normal; font-variant-caps: normal; font-weight: 400; letter-spacing: normal; orphans: 2; text-align: center; text-indent: 0px; text-transform: none; widows: 2; word-spacing: 0px; -webkit-text-stroke-width: 0px; white-space: nowrap; text-decoration-thickness: initial; text-decoration-style: initial; text-decoration-color: initial;&quot;&gt;&lt;span style=&quot;font-family: Helvetica; font-size: 12px; font-style: normal; font-variant-ligatures: normal; font-variant-caps: normal; font-weight: 400; letter-spacing: normal; orphans: 2; text-align: center; text-indent: 0px; text-transform: none; widows: 2; word-spacing: 0px; -webkit-text-stroke-width: 0px; white-space: nowrap; text-decoration-thickness: initial; text-decoration-style: initial; text-decoration-color: initial; float: none; display: inline !important;&quot;&gt;Web Bucket&lt;/span&gt;" style="outlineConnect=0;dashed=0;verticalLabelPosition=bottom;verticalAlign=top;align=center;html=1;shape=mxgraph.aws3.bucket;fillColor=#E05243;gradientColor=none;fontColor=default;" parent="1" vertex="1">
          <mxGeometry x="360.25" y="195.5" width="60" height="61.5" as="geometry" />
        </mxCell>
        <mxCell id="xSIVq86NVZy9tXW9cExc-2" value="" style="group;fontColor=default;glass=0;" parent="1" vertex="1" connectable="0">
          <mxGeometry x="230" y="287" width="110" height="56" as="geometry" />
        </mxCell>
        <mxCell id="yIIMlywsqg2m234oK09I-13" value="Id" style="shape=mxgraph.electrical.abstract.function;html=1;shadow=0;dashed=0;align=center;strokeWidth=1;fontSize=24;" parent="xSIVq86NVZy9tXW9cExc-2" vertex="1">
          <mxGeometry x="24.75" width="60" height="40" as="geometry" />
        </mxCell>
        <mxCell id="yIIMlywsqg2m234oK09I-38" value="CloudFront&lt;br&gt;OriginAccessIdentity" style="text;html=1;align=center;verticalAlign=middle;whiteSpace=wrap;rounded=0;fillColor=default;labelBackgroundColor=default;" parent="xSIVq86NVZy9tXW9cExc-2" vertex="1">
          <mxGeometry y="50" width="110" height="16" as="geometry" />
        </mxCell>
        <mxCell id="xSIVq86NVZy9tXW9cExc-4" style="edgeStyle=orthogonalEdgeStyle;rounded=0;orthogonalLoop=1;jettySize=auto;html=1;dashed=1;strokeColor=#009900;fontColor=#009900;" parent="1" source="yIIMlywsqg2m234oK09I-2" target="yIIMlywsqg2m234oK09I-58" edge="1">
          <mxGeometry relative="1" as="geometry">
            <Array as="points">
              <mxPoint x="730" y="200" />
            </Array>
          </mxGeometry>
        </mxCell>
        <mxCell id="aziS1PCf4eZ0EtkE1LwG-11" value="&lt;font&gt;(0.1)&lt;/font&gt;" style="edgeLabel;html=1;align=center;verticalAlign=middle;resizable=0;points=[];fontColor=default;" parent="xSIVq86NVZy9tXW9cExc-4" vertex="1" connectable="0">
          <mxGeometry x="-0.6408" y="1" relative="1" as="geometry">
            <mxPoint x="5" y="1" as="offset" />
          </mxGeometry>
        </mxCell>
        <mxCell id="xSIVq86NVZy9tXW9cExc-6" value="&lt;h1 style=&quot;margin-top: 0px;&quot;&gt;&lt;u&gt;&lt;span style=&quot;font-weight: normal;&quot;&gt;Development&lt;/span&gt;&lt;br&gt;&lt;/u&gt;&lt;span style=&quot;font-weight: normal;&quot;&gt;Platform&lt;/span&gt;&lt;/h1&gt;&lt;p&gt;Provider: GitHub&lt;br&gt;Developer Flow&lt;/p&gt;" style="text;html=1;whiteSpace=wrap;overflow=hidden;rounded=0;" parent="1" vertex="1">
          <mxGeometry x="12" y="7" width="168" height="113" as="geometry" />
        </mxCell>
        <mxCell id="xSIVq86NVZy9tXW9cExc-7" value="&lt;h1 style=&quot;margin-top: 0px;&quot;&gt;&lt;u&gt;&lt;span style=&quot;font-weight: normal;&quot;&gt;Infrastructure&lt;/span&gt;&lt;br&gt;&lt;/u&gt;&lt;span style=&quot;font-weight: normal;&quot;&gt;Platform&lt;/span&gt;&lt;/h1&gt;&lt;p&gt;Provider: AWS&lt;br&gt;User Flow&lt;br&gt;&lt;/p&gt;" style="text;html=1;whiteSpace=wrap;overflow=hidden;rounded=0;" parent="1" vertex="1">
          <mxGeometry x="12" y="147" width="168" height="113" as="geometry" />
        </mxCell>
        <mxCell id="aziS1PCf4eZ0EtkE1LwG-24" value="&lt;div style=&quot;&quot;&gt;&lt;span style=&quot;background-color: initial;&quot;&gt;IAM&lt;/span&gt;&lt;/div&gt;CD Role" style="text;strokeColor=none;fillColor=none;align=right;verticalAlign=middle;spacingLeft=4;spacingRight=4;overflow=hidden;points=[[0,0.5],[1,0.5]];portConstraint=eastwest;rotatable=0;whiteSpace=wrap;html=1;" parent="1" vertex="1">
          <mxGeometry x="499.62" y="183.5" width="60" height="30" as="geometry" />
        </mxCell>
        <mxCell id="32sw-DG82-BzEEkinAcN-2" style="edgeStyle=orthogonalEdgeStyle;rounded=0;orthogonalLoop=1;jettySize=auto;html=1;strokeColor=#009900;" parent="1" source="32sw-DG82-BzEEkinAcN-1" target="yIIMlywsqg2m234oK09I-1" edge="1">
          <mxGeometry relative="1" as="geometry">
            <Array as="points">
              <mxPoint x="670" y="50" />
              <mxPoint x="670" y="50" />
            </Array>
          </mxGeometry>
        </mxCell>
        <mxCell id="32sw-DG82-BzEEkinAcN-4" value="manually triggers&lt;br&gt;deploy to: stg, prd" style="edgeLabel;html=1;align=center;verticalAlign=middle;resizable=0;points=[];" parent="32sw-DG82-BzEEkinAcN-2" vertex="1" connectable="0">
          <mxGeometry x="0.0988" y="-1" relative="1" as="geometry">
            <mxPoint x="19" y="-19" as="offset" />
          </mxGeometry>
        </mxCell>
        <mxCell id="32sw-DG82-BzEEkinAcN-1" value="Developer" style="shape=umlActor;verticalLabelPosition=bottom;verticalAlign=top;html=1;outlineConnect=0;" parent="1" vertex="1">
          <mxGeometry x="730" y="22" width="30" height="60" as="geometry" />
        </mxCell>
        <mxCell id="32sw-DG82-BzEEkinAcN-5" value="auto triggers&lt;br&gt;deploy to: stg" style="edgeLabel;html=1;align=center;verticalAlign=middle;resizable=0;points=[];" parent="1" vertex="1" connectable="0">
          <mxGeometry x="432.2484615384617" y="29.999999999999943" as="geometry" />
        </mxCell>
        <mxCell id="uAsZJu_QN1CAzZSzSdQD-2" value="&lt;span style=&quot;font-weight: normal;&quot;&gt;Route53&lt;br&gt;DNS Zone&lt;/span&gt;" style="sketch=0;outlineConnect=0;fontColor=#232F3E;gradientColor=none;strokeColor=#ffffff;fillColor=#232F3E;dashed=0;verticalLabelPosition=middle;verticalAlign=bottom;align=center;html=1;whiteSpace=wrap;fontSize=10;fontStyle=1;spacing=3;shape=mxgraph.aws4.productIcon;prIcon=mxgraph.aws4.route_53;" vertex="1" parent="1">
          <mxGeometry x="705" y="560" width="80" height="110" as="geometry" />
        </mxCell>
        <mxCell id="uAsZJu_QN1CAzZSzSdQD-3" value="Route53&lt;br&gt;DNS Record" style="sketch=0;outlineConnect=0;fontColor=#232F3E;gradientColor=none;strokeColor=#232F3E;fillColor=#ffffff;dashed=0;verticalLabelPosition=bottom;verticalAlign=top;align=center;html=1;fontSize=12;fontStyle=0;aspect=fixed;shape=mxgraph.aws4.resourceIcon;resIcon=mxgraph.aws4.route_table;" vertex="1" parent="1">
          <mxGeometry x="360.25" y="570" width="60" height="60" as="geometry" />
        </mxCell>
      </root>
    </mxGraphModel>
  </diagram>
</mxfile>
